<svg width="158" height="158" viewBox="0 0 158 158" fill="none" xmlns="http://www.w3.org/2000/svg">
<path d="M0 98.592C0 90.6246 1.53656 82.7348 4.52213 75.3741C7.50774 68.0127 11.8836 61.3244 17.4002 55.6904C22.9168 50.0565 29.4656 45.5874 36.6733 42.5382C43.8812 39.4895 51.6063 37.92 59.408 37.92V98.592H0Z" fill="#442781"/>
<path d="M0 98.592C0 106.394 1.53656 114.119 4.52213 121.327C7.50774 128.534 11.8836 135.083 17.4002 140.6C22.9168 146.116 29.4656 150.492 36.6733 153.478C43.8812 156.464 51.6063 158 59.408 158V98.592H0Z" fill="#61459C"/>
<path d="M120.08 98.592C120.08 106.394 118.512 114.119 115.463 121.327C112.414 128.534 107.945 135.083 102.31 140.6C96.676 146.116 89.9876 150.492 82.6261 153.478C75.2654 156.464 67.3755 158 59.408 158V98.592H120.08Z" fill="#A992DB"/>
<path d="M158 45.504C158 70.6351 137.626 91.008 112.496 91.008H66.992V45.504C66.992 20.3729 87.3649 0 112.496 0C137.626 0 158 20.3729 158 45.504Z" fill="#7839EE"/>
</svg>
